<svg xmlns="http://www.w3.org/2000/svg" viewBox="0 0 128 128" role="img" aria-label="PioDeploy deer mark">
  <!-- ground shadow -->
  <ellipse cx="64" cy="118" rx="30" ry="6" fill="#0f172a" opacity="0.12"/>

  <!-- antlers (black outline underlay + tan fill) -->
  <g fill="none" stroke-linecap="round" stroke-linejoin="round">
    <path d="M50 42 C46 30 44 24 43 13 M46 30 C41 28 37 26 32 22" stroke="#12100f" stroke-width="12"/>
    <path d="M78 42 C82 30 84 24 85 13 M82 30 C87 28 91 26 96 22" stroke="#12100f" stroke-width="12"/>
    <path d="M50 42 C46 30 44 24 43 13 M46 30 C41 28 37 26 32 22" stroke="#e8974e" stroke-width="6"/>
    <path d="M78 42 C82 30 84 24 85 13 M82 30 C87 28 91 26 96 22" stroke="#e8974e" stroke-width="6"/>
  </g>

  <!-- ears -->
  <g stroke="#12100f" stroke-width="4">
    <ellipse cx="39" cy="53" rx="9" ry="14" transform="rotate(-28 39 53)" fill="#14b8a6"/>
    <ellipse cx="89" cy="53" rx="9" ry="14" transform="rotate(28 89 53)" fill="#14b8a6"/>
    <ellipse cx="39" cy="54" rx="4" ry="8" transform="rotate(-28 39 54)" fill="#fdeecb" stroke="none"/>
    <ellipse cx="89" cy="54" rx="4" ry="8" transform="rotate(28 89 54)" fill="#fdeecb" stroke="none"/>
  </g>

  <!-- head -->
  <path d="M48 44 C50 36 78 36 80 44 C83 56 82 66 76 80 C72 90 68 94 64 95
           C60 94 56 90 52 80 C46 66 45 56 48 44 Z"
        fill="#14b8a6" stroke="#12100f" stroke-width="4" stroke-linejoin="round"/>

  <!-- muzzle patch -->
  <ellipse cx="64" cy="82" rx="12.5" ry="13" fill="#fdeecb"/>

  <!-- nose -->
  <path d="M64 80 C60 80 57.5 82.5 57.5 85 C57.5 88 61.5 90 64 91 C66.5 90 70.5 88 70.5 85 C70.5 82.5 68 80 64 80 Z"
        fill="#1f2937"/>

  <!-- eyes -->
  <g stroke="#12100f" stroke-width="3">
    <circle cx="54" cy="59" r="7" fill="#ffffff"/>
    <circle cx="74" cy="59" r="7" fill="#ffffff"/>
  </g>
  <circle cx="55.5" cy="60" r="3.4" fill="#12100f"/>
  <circle cx="75.5" cy="60" r="3.4" fill="#12100f"/>
  <circle cx="54" cy="58" r="1.3" fill="#ffffff"/>
  <circle cx="74" cy="58" r="1.3" fill="#ffffff"/>
</svg>
